<?xml version="1.0" encoding="utf-8"?>
<svg version="1.1" xmlns="http://www.w3.org/2000/svg" xmlns:xlink="http://www.w3.org/1999/xlink" x="0px" y="0px"
     viewBox="0 0 267.1 267.1" style="enable-background:new 0 0 267.1 267.1;" xml:space="preserve">
  <!-- LinkedIn background square -->
  <rect x="17.1" y="17.1" width="233" height="233" fill="#0077B5" rx="15" ry="15"/>

  <!-- White background for the "in" logo -->
  <rect x="47.1" y="47.1" width="173" height="173" rx="12" ry="12" fill="white"/>

  <!-- LinkedIn "in" text -->
  <path d="M85.1,103.1 v85 h-35 v-85 h35 M67.6,61.1 a17,17 0 1,1 0,34 a17,17 0 0,1 0,-34
         M123.1,103.1 h33.5 v14.6 h0.5 c4.7,-8.5 16,-17.2 33,-17.2 c35.3,0 41.8,22.4 41.8,51.5 v59.3 h-35 v-52.6
         c0,-12.6 -0.2,-28.8 -18.2,-28.8 c-18.2,0 -21,13.7 -21,27.9 v53.5 h-34.5 v-108.2"
         fill="#0077B5"/>
</svg>
